<?xml version="1.0" encoding="UTF-8" standalone="no"?>
<svg version="1.0" viewBox="0 0 1350.000000 750.000000" preserveAspectRatio="xMidYMid meet"
   xmlns:inkscape="http://www.inkscape.org/namespaces/inkscape"
   xmlns:sodipodi="http://sodipodi.sourceforge.net/DTD/sodipodi-0.dtd" xmlns="http://www.w3.org/2000/svg"
   xmlns:svg="http://www.w3.org/2000/svg">
   <g transform="translate(0.000000,2751.000000) scale(0.100000,-0.100000)" id="g14">
      <!--
      =============================================================================================
      NEW FILLED SHAPES
      =============================================================================================
      -->
      <path
         style="fill:#292929;stroke:#292929;stroke-width:13.9405;stroke-linejoin:round;paint-order:markers fill stroke"
         d="m 1067.4473,601.5512 c 0.3619,-1.14034 5.6953,-11.70028 11.8519,-23.46654 15.3202,-29.27921 32.2095,-64.00317 36.8493,-75.76124 2.1179,-5.3671 4.8714,-12.11085 6.1188,-14.9861 1.2474,-2.87526 2.268,-6.03279 2.268,-7.01673 0,-0.98395 0.3747,-2.1863 0.8327,-2.67189 0.458,-0.4856 2.3483,-5.77737 4.2006,-11.7595 1.8523,-5.98213 3.6924,-11.07717 4.089,-11.3223 0.3966,-0.24514 4.6751,1.46822 9.5076,3.80747 l 8.7865,4.25318 10.6877,0.0989 c 5.8783,0.0544 12.3017,-0.26991 14.2744,-0.72063 3.4783,-0.79475 3.5678,-0.75266 2.9654,1.39405 -0.3417,1.21746 -3.529,8.13077 -7.0829,15.36293 -14.3491,29.20004 -36.4144,56.92468 -82.1829,103.26145 -11.7565,11.90246 -21.9264,21.63173 -22.5998,21.62059 -0.8418,-0.0139 -1.0187,-0.66816 -0.5663,-2.0936 z"
         id="path37" transform="matrix(10,0,0,-10,0,27510)" />
      <path
         style="fill:#292929;stroke:#292929;stroke-width:13.9405;stroke-linejoin:round;paint-order:markers fill stroke"
         d="m 989.77695,710.22933 c -2.79851,-1.41466 -3.54727,-5.22089 -3.64858,-18.54717 l -0.0689,-9.06134 h 39.96283 39.9628 v 11.18226 c 0,7.66234 -0.4239,12.19678 -1.3466,14.40521 l -1.3466,3.22294 -35.5958,-0.0137 c -26.8151,-0.0103 -36.16887,-0.30343 -37.91916,-1.1882 z m 45.01385,-8.99815 c 2.9683,-1.12856 3.2854,-5.05138 0.5275,-6.52734 -1.0865,-0.58145 -6.0012,-0.88412 -11.8495,-0.72973 l -9.993,0.26381 -0.3016,2.63427 c -0.5726,5.00074 -0.072,5.26536 9.9703,5.26536 5.0943,0 10.3351,-0.40787 11.6463,-0.90637 z"
         id="path40" transform="matrix(10,0,0,-10,0,27510)" />
      <path
         style="fill:#292929;stroke:#292929;stroke-width:13.9405;stroke-linejoin:round;paint-order:markers fill stroke"
         d="m 1077.4,545.19391 c -2.4445,-3.00115 -5.6196,-6.17615 -7.0558,-7.05554 -1.4362,-0.8794 -3.0305,-2.70186 -3.5431,-4.04991 -1.331,-3.50096 -0.089,-11.21595 2.4347,-15.12129 2.619,-4.05312 4.1977,-9.42121 3.5261,-11.98973 -0.3338,-1.27637 0.6044,-3.30897 2.8692,-6.2159 5.6395,-7.23857 4.479,-13.2762 -4.2829,-22.28178 l -4.6619,-4.79161 1.6409,-10.85543 c 1.0634,-7.03414 2.0841,-11.02547 2.8998,-11.33846 0.6923,-0.26567 3.2464,0.77834 5.6757,2.32003 7.9094,5.01937 11.1903,5.97059 22.28,6.45957 8.0846,0.35647 11.4656,0.12046 15.0446,-1.05015 2.539,-0.83048 5.1174,-1.50996 5.7298,-1.50996 1.7368,0 0.3916,7.25627 -3.2438,17.49762 -5.564,15.67415 -7.5949,20.70287 -14.7034,36.40573 -14.2127,31.39643 -17.9306,39.01954 -19.0336,39.0264 -0.6224,0.004 -3.1317,-2.44843 -5.5763,-5.44959 z"
         id="path36" transform="matrix(10,0,0,-10,0,27510)" />
      <path
         style="fill:#292929;stroke:#292929;stroke-width:13.9405;stroke-linejoin:round;paint-order:markers fill stroke"
         d="m 1003.9009,495.82761 c -3.2217,-0.3659 -6.25286,-1.06061 -6.73603,-1.54378 -1.76856,-1.76856 -5.83186,-41.21692 -4.24547,-41.21692 0.35025,0 2.70696,1.04903 5.23715,2.33117 7.61385,3.85825 14.20415,5.10378 27.00475,5.10378 14.6849,0 20.0733,-0.97353 28.2038,-5.0956 3.5376,-1.79353 6.6321,-3.06082 6.8768,-2.8162 0.5855,0.58555 -1.4221,12.6578 -2.6359,15.85051 -0.8133,2.13909 -1.3102,2.40237 -3.4873,1.84767 -5.1579,-1.31419 -23.7732,-1.64543 -28.8332,-0.51305 -7.006,1.56787 -12.2743,6.78214 -12.2743,12.14829 0,2.06999 0.6488,5.0184 1.4419,6.55202 1.7753,3.43304 0.9992,6.23756 -2.0467,7.39558 -1.2674,0.48187 -2.3817,0.81891 -2.4762,0.74897 -0.095,-0.0699 -2.8077,-0.42653 -6.0293,-0.79244 z"
         id="path35" transform="matrix(10,0,0,-10,0,27510)" />
      <path
         style="fill:#292929;stroke:#292929;stroke-width:13.9405;stroke-linejoin:round;paint-order:markers fill stroke"
         d="m 956.53232,490.72173 c -3.20555,-0.63639 -6.55127,-1.78822 -7.43494,-2.55961 -0.88367,-0.77139 -3.17333,-1.68325 -5.08814,-2.02635 -5.75535,-1.03127 -7.90319,-3.7202 -10.82503,-13.55213 -1.44308,-4.85594 -2.91102,-10.3973 -3.2621,-12.31412 -0.7448,-4.0666 0.19497,-4.39219 5.749,-1.99179 4.71735,2.03879 19.30373,2.76215 27.2093,1.34935 4.30097,-0.76863 8.26746,-2.28873 12.21799,-4.68238 3.21726,-1.94935 6.13395,-3.37183 6.48154,-3.16107 0.34759,0.21077 0.89503,2.78136 1.21653,5.71243 0.3215,2.93107 1.1872,9.35217 1.92378,14.26912 0.73658,4.91694 1.33923,11.33947 1.33923,14.27229 0,4.71735 -0.18759,5.25415 -1.62639,4.65396 -6.70165,-2.79554 -6.66216,-2.79348 -12.75575,-0.6668 -6.62468,2.31203 -6.93789,2.32645 -15.14502,0.6971 z"
         id="path34" transform="matrix(10,0,0,-10,0,27510)" />
      <path
         style="fill:#292929;stroke:#292929;stroke-width:13.9405;stroke-linejoin:round;paint-order:markers fill stroke"
         d="m 980.31181,600.04806 c -8.12329,-6.49406 -46.65793,-45.49936 -59.82261,-60.55327 -15.95158,-18.24075 -27.6519,-33.61563 -35.00638,-46.00037 -7.66718,-12.91128 -15.84908,-31.18888 -14.54525,-32.49271 0.22965,-0.22964 2.28318,0.22983 4.5634,1.02106 3.02903,1.05106 6.79889,1.35026 13.99426,1.11067 9.43739,-0.31425 10.18539,-0.49493 17.92394,-4.32954 4.44156,-2.20087 8.76201,-3.86929 9.60101,-3.70758 1.08709,0.20953 2.53811,3.76585 5.04948,12.3758 4.01799,13.77525 4.20773,15.27814 1.9545,15.48098 -2.5467,0.22925 -3.19856,0.19258 -7.91526,-0.44534 -3.68091,-0.49784 -4.74184,-0.28746 -6.27323,1.24394 -1.68795,1.68794 -1.8431,3.12533 -1.8431,17.07471 0,13.14624 0.22362,15.50777 1.63333,17.2487 l 1.63334,2.01709 13.00421,-1.90909 c 20.44726,-3.00178 17.2268,-4.84811 27.85774,15.97117 13.30516,26.05638 20.1242,38.44631 29.89298,54.31439 4.78068,7.76558 8.69215,14.77069 8.69215,15.56692 0,2.80191 -3.6562,1.39932 -10.39451,-3.98753 z"
         id="path33" transform="matrix(10,0,0,-10,0,27510)" />
      <path
         style="fill:#292929;stroke:#292929;stroke-width:13.9405;stroke-linejoin:round;paint-order:markers fill stroke"
         d="m 990.70632,672.07733 c 0,-4.10871 1.8947,-31.74117 2.38364,-34.7632 l 0.48869,-3.02045 h 21.69865 c 18.9289,0 21.7706,0.18764 22.2627,1.47006 1.1172,2.91142 0.6264,36.20002 -0.5512,37.37752 -0.8062,0.80622 -7.3729,1.11525 -23.6988,1.11525 h -22.58368 z"
         id="path41" transform="matrix(10,0,0,-10,0,27510)" />
      <path
         style="fill:#292929;stroke:#292929;stroke-width:13.9405;stroke-linejoin:round;paint-order:markers fill stroke"
         d="m 921.93309,80.422673 c 0,-1.59057 5.54469,-7.270266 10.03702,-10.2814 4.17906,-2.801161 4.65594,-2.902898 11.01468,-2.349853 6.40649,0.557198 6.71691,0.488548 8.59665,-1.901152 1.07259,-1.363574 1.95016,-3.59504 1.95016,-4.958814 0,-1.363775 1.67506,-5.943402 3.72235,-10.176949 4.53639,-9.380664 11.88434,-17.121994 20.4964,-21.593693 5.72521,-2.972735 6.43062,-3.108082 16.20876,-3.109949 9.35509,-0.0018 10.68419,0.223149 15.65449,2.649427 8.3292,4.065949 14.7916,11.272028 20.1542,22.473512 2.493,5.207331 5.1794,9.71607 5.97,10.019419 0.7905,0.303351 4.7716,0.294416 8.847,-0.01985 12.192,-0.94018 18.6369,2.85816 23.8304,14.044666 l 2.1856,4.707618 -2.0755,0.604386 c -3.4565,1.006526 -146.59221,0.901693 -146.59221,-0.107364 z"
         id="path32" transform="matrix(10,0,0,-10,0,27510)" />
      <path
         style="fill:#292929;stroke:#292929;stroke-width:13.9405;stroke-linejoin:round;paint-order:markers fill stroke"
         d="m 916.94264,507.66729 c -0.89086,-3.32427 -0.67481,-11.31663 0.38836,-14.36645 l 0.97413,-2.79438 5.29911,1.24712 c 2.91451,0.68592 7.39018,1.26006 9.94595,1.27587 6.45382,0.0399 7.23829,0.78007 7.7079,7.27235 0.47953,6.62939 0.16747,6.89924 -9.74466,8.42665 -10.68496,1.64651 -13.90806,1.41177 -14.57079,-1.06116 z"
         id="path43" transform="matrix(10,0,0,-10,0,27510)" />
      <path
         style="fill:#292929;stroke:#292929;stroke-width:13.9405;stroke-linejoin:round;paint-order:markers fill stroke"
         d="m 1047.8638,671.23606 c -0.3012,-1.66125 -0.4247,-10.54833 -0.2745,-19.74907 l 0.2732,-16.72863 5.2242,-0.27515 c 4.7723,-0.25135 5.2744,-0.0905 5.8036,1.85874 0.7174,2.64262 1.3253,10.65957 1.9765,26.06511 l 0.5009,11.84945 h -6.4781 -6.4782 z"
         id="path42" transform="matrix(10,0,0,-10,0,27510)" />
      <path
         style="fill:#292929;stroke:#292929;stroke-width:13.9405;stroke-linejoin:round;paint-order:markers fill stroke"
         d="m 951.20304,504.17384 c -0.94093,-1.52245 0.4667,-4.62828 2.15884,-4.76333 7.82446,-0.62451 13.09117,1.24302 11.94307,4.2349 -0.43794,1.14126 -1.99836,1.46611 -7.04249,1.46611 -3.56395,0 -6.74068,-0.42195 -7.05942,-0.93768 z"
         id="path44" transform="matrix(10,0,0,-10,0,27510)" />
      <path
         style="fill:#292929;stroke:#292929;stroke-width:13.9405;stroke-linejoin:round;paint-order:markers fill stroke"
         d="m 1158.285,453.28215 c -2.2849,-0.18576 -7.4612,-2.12644 -12.5464,-4.70379 l -8.6568,-4.38756 -0.2818,-5.982 c -0.155,-3.2901 0.405,-9.06901 1.2444,-12.84202 1.2527,-5.6306 1.8029,-6.76738 3.0699,-6.34313 0.849,0.28429 4.4712,1.56718 8.0493,2.85088 4.2222,1.51481 8.5155,2.34241 12.2323,2.35798 7.1093,0.0298 19.3744,-2.25123 22.2555,-4.139 1.1862,-0.77727 2.4333,-1.41321 2.7711,-1.41321 0.9727,0 -0.2538,20.52378 -1.4646,24.50995 -0.6014,1.97955 -2.1086,4.54002 -3.3493,5.68993 -3.5372,3.27813 -13.6562,5.18794 -23.3236,4.40197 z"
         id="path31" transform="matrix(10,0,0,-10,0,27510)" />
      <path
         style="fill:#292929;stroke:#292929;stroke-width:13.9405;stroke-linejoin:round;paint-order:markers fill stroke"
         d="m 1093.5408,450.29163 c -9.3315,-1.68662 -20.081,-9.30389 -21.5847,-15.29524 -0.7523,-2.99718 -0.1421,-18.73994 0.7613,-19.6418 0.3802,-0.37961 3.935,0.80594 7.8996,2.63457 7.9604,3.6717 14.7025,5.33798 21.5985,5.33798 5.3651,0 15.7936,-2.08239 20.6636,-4.12615 7.0164,-2.94456 7.3632,-2.09422 4.8129,11.80146 -1.8409,10.03031 -3.897,13.1951 -10.8556,16.70957 -5.9957,3.02815 -15.1845,4.04566 -23.2956,2.57961 z"
         id="path30" transform="matrix(10,0,0,-10,0,27510)" />
      <path
         style="fill:#292929;stroke:#292929;stroke-width:13.9405;stroke-linejoin:round;paint-order:markers fill stroke"
         d="m 1053.4387,489.78245 c -3.5082,-2.90493 -10.0928,-4.82953 -19.0521,-5.56874 -12.9036,-1.06464 -14.5647,-1.93406 -9.097,-4.76151 2.4871,-1.28611 4.9279,-1.4621 14.6376,-1.05541 13.3651,0.55981 19.0517,2.25263 25.6045,7.62215 5.6182,4.60371 4.8561,6.08279 -3.1311,6.07682 -5.2031,-0.004 -6.6122,-0.36762 -8.9619,-2.31331 z"
         id="path45" transform="matrix(10,0,0,-10,0,27510)" />
      <path
         style="fill:#292929;stroke:#292929;stroke-width:13.9405;stroke-linejoin:round;paint-order:markers fill stroke"
         d="m 940.05576,450.28205 c -4.28655,-1.34268 -12.66601,-6.70415 -14.53018,-9.29692 -0.91879,-1.27788 -2.0998,-5.04182 -2.62449,-8.36431 -0.93363,-5.91211 -1.3083,-14.86989 -0.62195,-14.86989 0.19033,0 3.64061,1.07756 7.66729,2.39457 14.29012,4.67391 30.08186,3.79392 42.40267,-2.36286 3.10836,-1.55326 5.83496,-2.64071 6.05912,-2.41655 0.22417,0.22417 0.63208,5.60603 0.90647,11.95969 l 0.4989,11.55212 -5.00902,3.98092 c -7.85154,6.24 -11.94463,7.68705 -22.66702,8.01355 -5.11153,0.15565 -10.54833,-0.10999 -12.08179,-0.59032 z"
         id="path28" transform="matrix(10,0,0,-10,0,27510)" />
      <path
         style="fill:#292929;stroke:#292929;stroke-width:13.9405;stroke-linejoin:round;paint-order:markers fill stroke"
         d="m 1013.0112,450.33739 c -5.5049,-1.01098 -10.1772,-3.01577 -15.39452,-6.60537 -6.75722,-4.64909 -7.83219,-7.16135 -7.83625,-18.3138 -0.002,-5.23932 0.15867,-9.52603 0.35686,-9.52603 0.19819,0 3.11803,1.29048 6.48854,2.86773 9.01317,4.21776 14.82977,5.4766 25.21427,5.45686 14.0808,-0.0268 21.953,-1.34613 30.1708,-5.05657 10.9204,-4.93069 10.6414,-5.11513 9.9781,6.59804 -0.6464,11.41429 -1.9745,14.18254 -8.9664,18.6884 -7.8473,5.05715 -11.6587,6.06005 -24.2122,6.37103 -6.3894,0.15828 -13.4991,-0.0578 -15.7992,-0.48029 z"
         id="path29" transform="matrix(10,0,0,-10,0,27510)" />
      <path
         style="fill:#292929;stroke:#292929;stroke-width:13.9405;stroke-linejoin:round;paint-order:markers fill stroke"
         d="m 1037.8085,533.50422 c -1.9516,-2.32401 -4.67,-4.49028 -6.0409,-4.81395 -4.1768,-0.98614 -6.4563,-3.93881 -10.0492,-13.01666 l -3.4405,-8.69249 2.5601,-5.3493 c 1.408,-2.94211 2.885,-5.97662 3.2822,-6.74334 0.5729,-1.10591 2.756,-1.39406 10.5618,-1.39406 5.9482,0 10.245,0.40634 10.8646,1.02745 0.5638,0.5651 1.3976,3.66317 1.8529,6.8846 0.4554,3.22143 1.3731,6.20296 2.0395,6.62561 0.6664,0.42265 4.0345,0.77486 7.4848,0.78268 7.4393,0.0169 7.8468,0.88793 3.4851,7.44918 -2.4743,3.72209 -2.7806,4.95808 -2.7841,11.23558 0,6.78586 -0.1009,7.09842 -2.5597,8.23958 -1.4057,0.65239 -5.0651,1.36715 -8.132,1.58836 l -5.5762,0.40222 z m -6.6996,-29.89462 c 1.6978,-1.69777 1.5118,-3.05534 -0.6011,-4.38814 -2.1333,-1.34567 -4.4855,-0.0592 -4.4855,2.45321 0,3.71398 2.3961,4.62545 5.0866,1.93493 z"
         id="path46" transform="matrix(10,0,0,-10,0,27510)" />
      <path
         style="fill:#292929;stroke:#292929;stroke-width:13.9405;stroke-linejoin:round;paint-order:markers fill stroke"
         d="m 880.43099,453.08447 c -6.96028,-1.47804 -11.46094,-4.40339 -13.35209,-8.67863 -2.69705,-6.09714 -4.89058,-23.29181 -3.18847,-24.99391 0.27914,-0.27914 4.25221,0.69669 8.82904,2.16852 5.25528,1.69001 10.29056,2.67099 13.66534,2.66232 6.00236,-0.0154 15.62504,-2.05325 20.40397,-4.321 2.3369,-1.10893 3.44428,-1.23146 4.20991,-0.46583 1.2983,1.29829 2.41328,8.90391 2.50224,17.06844 l 0.0678,6.22697 -4.19036,3.50272 c -2.30471,1.92649 -6.08221,4.24583 -8.39445,5.15409 -5.04174,1.98041 -15.21398,2.81007 -20.55297,1.67631 z"
         id="path27" transform="matrix(10,0,0,-10,0,27510)" />
      <path
         style="fill:#292929;stroke:#292929;stroke-width:2.46436;stroke-linejoin:round;paint-order:markers fill stroke"
         d="m 1056.2587,501.67575 c -1.4769,-0.38219 -1.6274,-1.8808 -0.2282,-2.27312 0.8246,-0.23122 5.2933,-0.10675 6.8354,0.1904 1.3422,0.25863 2.3944,0.63199 2.3944,0.84962 0,0.21542 -1.5433,0.73546 -2.8683,0.96652 -1.7428,0.30392 -5.3784,0.46193 -6.1333,0.26658 z"
         id="path48" transform="matrix(10,0,0,-10,0,27510)" />
      <path
         style="fill:#292929;stroke:#292929;stroke-width:13.9405;stroke-linejoin:round;paint-order:markers fill stroke"
         d="m 1151.6481,412.65424 c -6.3659,-1.98662 -11.1739,-5.79579 -12.2004,-9.66573 -0.4902,-1.84814 -1.5521,-10.05171 -2.3598,-18.23015 -2.4818,-25.13007 -6.5475,-41.41952 -14.1498,-56.69145 -6.835,-13.73056 -15.2488,-25.39767 -26.4315,-36.65146 -5.6653,-5.70138 -10.0975,-10.5693 -9.8492,-10.81759 0.2483,-0.24829 1.6582,0.1609 3.1331,0.9093 1.4749,0.74841 6.3881,3.065 10.9183,5.14798 44.6509,20.53046 74.7769,55.95797 83.2537,97.90465 0.9517,4.70959 1.9953,11.1267 2.319,14.26024 0.5385,5.212 0.3845,5.93988 -1.8069,8.54431 -3.6592,4.3487 -10.9716,6.68171 -20.7083,6.60694 -4.4535,-0.0342 -9.9066,-0.62686 -12.1182,-1.31704 z"
         id="path26" transform="matrix(10,0,0,-10,0,27510)" />
      <path
         style="fill:#292929;stroke:#292929;stroke-width:13.9405;stroke-linejoin:round;paint-order:markers fill stroke"
         d="m 1091.7206,411.76112 c -6.8515,-1.96293 -14.2481,-5.89032 -16.7957,-8.91797 -2.6704,-3.17356 -2.9382,-5.03565 -4.3376,-30.16657 -2.2673,-40.71663 -8.7053,-68.49869 -21.9136,-94.56401 -1.4456,-2.85276 -2.019,-4.97175 -1.4887,-5.50199 1.053,-1.05309 12.6212,3.40419 19.7865,7.62389 11.5292,6.78954 28.4185,22.84635 37.6042,35.75066 12.388,17.40281 18.5727,34.86173 22.738,64.18705 3.1975,22.51203 2.7805,24.03076 -8.063,29.36901 -5.3721,2.64467 -7.2054,3.05424 -14.6022,3.26233 -5.1227,0.14412 -10.2215,-0.26701 -12.9279,-1.0424 z"
         id="path25" transform="matrix(10,0,0,-10,0,27510)" />
      <path
         style="fill:#292929;stroke:#292929;stroke-width:13.9405;stroke-linejoin:round;paint-order:markers fill stroke"
         d="m 1014.3159,414.06083 c -6.4102,-0.73282 -16.30927,-5.01125 -21.97264,-9.49671 l -3.75864,-2.97691 0.65521,-18.17279 c 1.53207,-42.49353 7.20635,-70.39572 19.00457,-93.45159 6.0329,-11.78933 13.0441,-19.98142 17.1011,-19.98142 5.8355,0 14.7217,12.01646 21.4703,29.03342 9.2561,23.33962 13.4723,46.84559 14.2635,79.52144 l 0.5245,21.65896 -3.1532,3.32644 c -8.2205,8.67216 -25.1348,12.71122 -44.1347,10.53916 z"
         id="path24" transform="matrix(10,0,0,-10,0,27510)" />
      <path
         style="fill:#292929;stroke:#292929;stroke-width:13.9405;stroke-linejoin:round;paint-order:markers fill stroke"
         d="m 935.57252,411.70569 c -4.54724,-1.24979 -10.28906,-4.70663 -13.2474,-7.97556 -1.23911,-1.3692 -1.57637,-3.16533 -1.41807,-7.55216 0.31126,-8.62527 3.51259,-29.13302 5.69974,-36.51254 1.06048,-3.57807 2.27732,-7.76023 2.7041,-9.29368 2.58906,-9.30279 12.29156,-28.15902 19.82728,-38.53316 9.12019,-12.55542 29.21821,-29.67012 40.91832,-34.84446 7.03183,-3.10981 14.59031,-5.24541 14.59031,-4.12239 0,0.51227 -1.2931,3.52179 -2.8736,6.68782 -13.55874,27.16041 -20.02102,56.4422 -22.13232,100.28554 -0.55648,11.55594 -1.33597,19.26156 -2.11101,20.86833 -1.85697,3.84975 -8.48598,8.40008 -15.30631,10.50667 -7.12655,2.20116 -19.58326,2.42813 -26.65104,0.48559 z"
         id="path23" transform="matrix(10,0,0,-10,0,27510)" />
      <path
         style="fill:#292929;stroke:#292929;stroke-width:2.46436;stroke-linejoin:round;paint-order:markers fill stroke"
         d="m 1035.6605,604.66737 c -3.0501,-0.22088 -4.3984,-0.455 -5.8048,-1.00797 -0.7229,-0.28422 -1.3766,-0.57135 -1.4526,-0.63806 -0.1781,-0.15623 0.1703,-21.91763 0.3839,-23.97909 0.283,-2.73143 0.7203,-4.09837 1.65,-5.15727 1.4869,-1.69349 3.5419,-2.15017 12.6441,-2.80987 5.7228,-0.41478 9.4758,-0.95306 10.6789,-1.53162 0.8769,-0.42171 1.1763,-1.43 1.092,-3.67693 -0.074,-1.97059 -0.3376,-2.65944 -1.1825,-3.08908 -1.0105,-0.51389 -6.2973,-0.26526 -17.4886,0.82247 -10.8414,1.05371 -19.1928,1.50845 -28.258,1.53866 -6.1375,0.0205 -6.3602,0.0101 -7.5042,-0.34963 -2.05851,-0.64723 -3.31656,-2.09511 -6.24448,-7.18665 -4.96802,-8.63922 -10.89746,-21.16152 -10.50477,-22.18487 0.29256,-0.76238 6.95202,-3.18741 8.77559,-3.1956 1.85184,-0.008 3.35528,1.93919 7.11906,9.22176 0.9727,1.88216 2.1101,3.94997 2.5274,4.59514 1.5119,2.33707 3.1372,3.56235 5.3178,4.00882 3.9289,0.80444 13.114,0.2266 20.7213,-1.3036 4.565,-0.91823 9.038,-1.65921 15.8598,-2.62728 9.8357,-1.39576 13.5065,-1.7897 16.8341,-1.80653 l 3.0393,-0.0154 0.8215,0.47851 c 1.2008,0.69952 3.3552,2.8655 4.9983,5.02522 2.8847,3.79179 5.944,8.71851 6.8538,11.03751 l 0.4527,1.15373 -0.2985,0.84566 c -1.4151,4.00989 -11.8894,25.19819 -17.7644,35.93517 -2.1346,3.90118 -2.9187,5.17196 -3.326,5.3899 -0.7753,0.41493 -3.076,0.54679 -10.3843,0.59514 -4.2018,0.0278 -8.5021,-0.0119 -9.5564,-0.0883 z"
         id="path52" transform="matrix(10,0,0,-10,0,27510)" />
      <path
         style="fill:#292929;stroke:#292929;stroke-width:2.46436;stroke-linejoin:round;paint-order:markers fill stroke"
         d="m 985.87303,623.63779 c -2.38486,-2.58937 -3.03743,-4.19609 -2.67995,-6.59842 0.15322,-1.02964 1.10371,-1.98293 2.39195,-2.39898 3.96116,-1.27931 10.5796,-1.47063 47.80287,-1.38182 29.1789,0.0696 29.7934,0.0836 32.1094,0.73031 0.8155,0.22772 1.1765,0.46278 2.1919,1.42733 2.9842,2.83464 2.8104,4.49208 -0.8414,8.02558 l -1.995,1.93041 -38.6921,-9.5e-4 -38.69199,-9.5e-4 z"
         id="path55" transform="matrix(10,0,0,-10,0,27510)" />
      <path
         style="fill:#292929;stroke:#292929;stroke-width:2.46436;stroke-linejoin:round;paint-order:markers fill stroke"
         d="m 1016.1044,604.18104 c -1.3046,-0.70911 -2.0632,-2.49987 -2.8545,-6.73824 -0.2446,-1.31022 -0.8094,-3.74993 -1.2551,-5.42159 -1.8512,-6.94226 -3.6499,-15.90801 -3.3488,-16.69244 0.1695,-0.44179 1.7779,-1.02179 4.2538,-1.53394 1.3368,-0.27651 2.6113,-0.50275 2.8323,-0.50275 0.6481,0 2.4609,0.80039 2.9029,1.28163 1.0335,1.12536 1.1385,2.18395 1.2337,12.43664 0.1179,12.70892 -0.1424,16.41834 -1.2006,17.11171 -0.6439,0.4219 -1.8452,0.44954 -2.5637,0.059 z"
         id="path54" transform="matrix(10,0,0,-10,0,27510)" />
      <path
         style="fill:#292929;stroke:#292929;stroke-width:13.9405;stroke-linejoin:round;paint-order:markers fill stroke"
         d="m 875.59705,412.22942 c -6.23499,-2.31076 -11.0998,-5.96435 -11.83338,-8.88717 -0.7576,-3.01849 3.64464,-23.64445 7.19351,-33.70404 9.64051,-27.3269 30.12122,-52.74315 57.48148,-71.33366 8.60666,-5.84798 34.01143,-18.78507 34.9822,-17.81429 0.33097,0.33097 -3.40224,4.92565 -8.29603,10.21041 -28.47083,30.74541 -38.86106,54.65535 -42.81211,98.51898 -1.45091,16.10771 -2.07571,17.39894 -10.40214,21.49749 -7.41191,3.64839 -18.78601,4.30208 -26.31353,1.51228 z"
         id="path22" transform="matrix(10,0,0,-10,0,27510)" />
      <path
         style="fill:#292929;stroke:#292929;stroke-width:2.46436;stroke-linejoin:round;paint-order:markers fill stroke"
         d="m 1004.4198,604.42516 c -1.8639,-0.64081 -4.9811,-4.56493 -9.91844,-12.48609 -11.65002,-18.69061 -18.85769,-31.10831 -26.74847,-46.08352 -1.8807,-3.56921 -3.91301,-7.37665 -4.51625,-8.46097 -2.15999,-3.88259 -9.24283,-19.35526 -10.08384,-22.02845 -0.24934,-0.79255 0.93374,-1.15283 5.40076,-1.64465 3.6291,-0.39957 6.88884,-0.40932 7.59629,-0.0227 0.82291,0.4497 1.73533,2.56083 3.99276,9.23824 3.04531,9.00795 10.1569,26.09186 14.70384,35.32248 2.94374,5.97602 4.98777,9.2063 7.46883,11.80337 1.49913,1.56923 2.64717,2.45501 4.60014,3.54928 2.53711,1.42157 2.81908,1.98765 4.66878,9.37309 0.7582,3.02705 2.0813,7.94345 2.9403,10.92532 1.6939,5.87983 2.0841,7.52004 2.0841,8.76047 0,1.39458 -0.971,2.17277 -2.1888,1.75414 z"
         id="path53" transform="matrix(10,0,0,-10,0,27510)" />
      <path
         style="fill:#292929;stroke:#292929;stroke-width:2.46436;stroke-linejoin:round;paint-order:markers fill stroke"
         d="m 980.50545,525.53075 c -1.33869,-0.65947 -3.08464,-4.54926 -3.47042,-7.73175 -0.11426,-0.94258 -0.48626,-2.35104 -1.08608,-4.11211 -1.42591,-4.18643 -1.9927,-8.3108 -1.82761,-13.29893 0.0924,-2.79038 0.24987,-3.49238 0.85648,-3.81703 1.09369,-0.58532 2.49085,0.76156 3.89823,3.75798 1.44193,3.06994 1.64249,3.43057 2.22112,3.99371 0.67439,0.65633 1.46615,0.73465 4.74855,0.46977 1.74196,-0.14058 2.44299,-0.14476 2.52315,-0.0151 0.0611,0.0988 0.23854,1.48969 0.3944,3.09089 0.55826,5.73508 1.32041,10.00572 2.14999,12.04734 0.66789,1.64368 0.527,2.4792 -0.59652,3.53767 -1.07747,1.01508 -2.99957,1.70243 -5.88676,2.10513 -2.30882,0.32202 -3.2279,0.31556 -3.92453,-0.0276 z"
         id="path51" transform="matrix(10,0,0,-10,0,27510)" />
      <path
         style="fill:#292929;stroke:#292929;stroke-width:13.9405;stroke-linejoin:round;paint-order:markers fill stroke"
         d="m 463.75465,637.12321 c -71.81692,-0.29428 -130.70687,-0.63309 -130.86656,-0.75292 -1.02337,-0.76793 5.72276,-10.46911 10.00928,-14.39371 9.56132,-8.75405 17.38216,-10.90349 31.76993,-8.73148 l 5.24351,0.79158 3.55494,-6.83247 c 4.889,-9.39647 13.02377,-17.49134 20.34466,-20.24484 7.91709,-2.97775 14.08718,-2.77894 23.52994,0.7582 4.25188,1.5927 7.88155,2.89581 8.06593,2.89581 0.18438,0 3.81523,-3.45724 8.06857,-7.68275 10.19635,-10.12966 13.77149,-11.83398 24.82409,-11.83398 7.04927,0 9.49871,0.41073 14.16683,2.37551 3.10417,1.30654 6.52864,2.24752 7.60991,2.09108 1.15184,-0.16664 3.4338,-2.40114 5.51057,-5.39595 9.88853,-14.25974 21.03044,-24.54974 32.78876,-30.28169 13.73744,-6.69675 21.08481,-8.1125 39.38551,-7.58912 16.4762,0.4712 19.84529,1.20992 30.77338,6.74753 11.70704,5.93232 23.71874,15.52729 31.8215,25.41908 2.84995,3.4792 4.20732,3.53632 11.83791,0.49811 2.73847,-1.09035 6.74871,-1.68225 11.6171,-1.71467 6.71422,-0.0447 8.13522,0.28488 14.659,3.40001 5.19289,2.47962 9.29194,5.41933 14.57869,10.45539 4.81896,4.59043 8.09589,7.00491 9.50458,7.00306 1.21136,-0.002 5.84562,-2.7838 10.61549,-6.37309 10.39403,-7.82142 16.46044,-10.85879 25.47833,-12.75667 27.23513,-5.73182 53.76058,4.00258 67.98535,24.94947 2.0357,2.9977 4.37466,5.70877 5.19769,6.0246 0.84847,0.32558 3.73414,-0.65706 6.6643,-2.26937 6.07352,-3.34193 12.76996,-4.92528 20.8304,-4.92528 10.8952,0 19.69591,6.63445 27.34191,20.61183 2.14697,3.9248 4.70902,7.39163 5.69342,7.70407 0.98441,0.31244 4.21672,-0.28491 7.18292,-1.32745 2.9662,-1.04253 6.33288,-1.89552 7.48152,-1.89552 3.27054,0 12.1214,3.61887 15.21276,6.22007 5.59974,4.71189 11.01554,14.93514 8.64682,16.32239 -1.35539,0.7938 -300.06268,1.29479 -437.12894,0.73317 z"
         id="path21" transform="matrix(10,0,0,-10,0,27510)" />
      <path
         style="fill:#292929;stroke:#292929;stroke-width:13.9405;stroke-linejoin:round;paint-order:markers fill stroke"
         d="m 180.06506,551.81849 c -3.96144,-0.17421 -7.20261,-0.57335 -7.20261,-0.88696 0,-1.36624 5.15278,-7.14139 8.59952,-9.63819 3.47565,-2.51775 4.37684,-2.72457 11.87223,-2.72457 9.05397,0 9.63695,-0.33523 10.50513,-6.04089 1.01629,-6.67901 7.72253,-18.69938 13.94822,-25.00101 8.32263,-8.42415 12.49862,-10.14021 25.83291,-10.61562 10.08525,-0.35958 11.19785,-0.2218 16.01416,1.98318 9.49295,4.34602 18.27046,14.58236 22.46481,26.19851 2.59192,7.17823 2.74932,7.2838 9.69284,6.50093 8.51494,-0.96004 12.01278,-0.65543 16.32306,1.42151 4.27601,2.06042 10.0091,9.05702 11.96581,14.60292 l 1.32661,3.76 -2.82748,0.5655 c -2.85718,0.57143 -125.18822,0.46077 -138.51521,-0.12531 z"
         id="path20" transform="matrix(10,0,0,-10,0,27510)" />
      <path
         style="fill:#292929;stroke:#292929;stroke-width:2.46436;stroke-linejoin:round;paint-order:markers fill stroke"
         d="m 998.55832,508.24773 c -1.7196,-0.24261 -2.30007,-0.83504 -2.30007,-2.34747 0,-2.57735 3.22513,-2.99882 8.95385,-1.17013 3.4785,1.11039 4.1346,1.88417 2.2908,2.70173 -1.4493,0.64262 -6.7473,1.12588 -8.94458,0.81587 z"
         id="path50" transform="matrix(10,0,0,-10,0,27510)" />
      <path
         style="fill:#292929;stroke:#292929;stroke-width:2.46436;stroke-linejoin:round;paint-order:markers fill stroke"
         d="m 1011.5005,542.16243 c -2.2746,-0.6261 -3.4321,-1.93782 -5.6924,-6.45056 -1.4581,-2.91114 -3.1332,-5.74395 -3.7168,-6.28538 -0.6336,-0.5879 -0.8843,-1.15216 -0.9972,-2.24485 -0.1494,-1.44562 -0.6377,-2.8809 -1.73721,-5.1066 -1.55483,-3.1473 -1.49742,-3.7164 0.46889,-4.64753 1.40892,-0.66719 5.77992,-2.12992 8.30062,-2.77772 1.5449,-0.39704 2.0186,-0.46137 2.3814,-0.32342 1.6171,0.61481 2.2773,1.90792 5.4028,10.58213 0.9479,2.63088 2.8786,6.42695 3.8903,7.64912 1.367,1.65135 2.5774,2.31355 4.6183,2.52668 1.6021,0.1673 3.5688,1.34232 4.9192,2.93889 0.8376,0.99027 1.1476,1.53128 1.0073,1.75817 -0.3163,0.51186 -1.9544,0.93346 -6.0202,1.54942 -6.9802,1.0575 -11.0466,1.32119 -12.825,0.83165 z"
         id="path49" transform="matrix(10,0,0,-10,0,27510)" />
      <path
         style="fill:#292929;stroke:#292929;stroke-width:13.9405;stroke-linejoin:round;paint-order:markers fill stroke"
         d="m 46.468401,409.06138 c 0,-1.9029 5.057032,-8.48149 8.533116,-11.10056 7.249493,-5.46214 24.571824,-8.03898 32.832682,-4.88413 2.272883,0.86802 4.961453,1.31512 5.9746,0.99356 1.016989,-0.32278 3.497004,-3.57987 5.53681,-7.27169 7.980951,-14.44463 13.831511,-17.37771 30.419701,-15.25042 l 5.69467,0.73029 3.53701,-10.33307 c 1.94535,-5.68318 5.02866,-12.91237 6.85179,-16.06486 4.27411,-7.39062 17.50681,-20.54536 25.19326,-25.04482 9.67487,-5.66343 14.30477,-6.70929 29.70145,-6.70929 11.66881,0 14.30962,0.2881 19.69372,2.14843 8.07374,2.78968 15.54512,7.68013 23.08122,15.10799 7.39642,7.29018 12.2325,15.05009 15.7244,25.23115 1.4522,4.23407 2.9389,8.43018 3.30378,9.3247 0.54573,1.33791 1.85582,1.6264 7.3858,1.6264 5.62618,0 7.64227,0.45967 12.36352,2.8189 7.09607,3.54595 17.29304,14.0252 18.91492,19.43854 0.61545,2.05421 1.92974,4.46863 2.92065,5.36538 1.72938,1.56508 2.01251,1.50812 7.05998,-1.42025 13.52761,-7.84829 16.78635,-9.01005 25.23975,-8.99811 8.63209,0.0122 13.09387,1.65547 19.376,7.13623 4.45793,3.88926 8.55424,3.41959 9.65048,-1.10649 6.60799,-27.28237 14.43957,-42.49718 29.95963,-58.20413 18.95141,-19.1796 44.02766,-27.78975 71.59009,-24.58109 12.34561,1.43721 18.3297,3.24008 30.20447,9.09992 9.53878,4.70711 11.71826,6.27547 20.27387,14.58915 5.69484,5.53379 11.24241,11.97241 13.6663,15.86139 4.47839,7.18529 10.66949,20.03514 10.66949,22.14492 0,0.73526 0.83652,3.22791 1.85893,5.53924 l 1.85892,4.20242 10.94052,0.33022 c 10.19908,0.30784 11.36934,0.54137 17.26803,3.44579 3.60661,1.77583 8.39341,5.18397 11.13178,7.9257 5.54001,5.54679 11.6997,16.20194 9.98051,17.26447 -2.44891,1.5135 -63.3011,1.89873 -299.93689,1.89873 -207.956393,0 -248.454959,-0.20451 -248.454959,-1.25461 z"
         id="path19" transform="matrix(10,0,0,-10,0,27510)" />
      <path
         style="fill:#292929;stroke:#292929;stroke-width:13.9405;stroke-linejoin:round;paint-order:markers fill stroke"
         d="m 702.60223,282.1732 c -1.78903,-0.31608 -3.25279,-1.02898 -3.25279,-1.58423 0,-1.34925 8.54227,-8.68581 11.36113,-9.75754 1.22964,-0.46751 5.50338,-0.85002 9.4972,-0.85002 h 7.2615 l 3.42701,-9.9907 c 3.83806,-11.18903 5.74904,-14.52441 12.01619,-20.97284 5.18189,-5.33178 15.37187,-10.42928 23.2685,-11.63999 9.44741,-1.44848 21.39426,2.52671 29.44053,9.79603 4.21765,3.8104 10.32477,13.56079 12.50919,19.97169 2.11501,6.2072 4.00978,7.64008 8.46649,6.40256 12.11088,-3.36289 22.39267,1.27316 28.09817,12.66946 3.71528,7.42098 10.21403,6.78929 -68.4407,6.6526 -38.7198,-0.0673 -71.86339,-0.38095 -73.65242,-0.69702 z"
         id="path18" transform="matrix(10,0,0,-10,0,27510)" />
      <path
         style="fill:#292929;stroke:#292929;stroke-width:13.9405;stroke-linejoin:round;paint-order:markers fill stroke"
         d="m 135.45539,244.19216 c -17.61152,-0.1946 -23.93123,-0.55388 -23.93123,-1.3605 0,-2.26825 5.18521,-8.44945 9.95044,-11.86176 2.87335,-2.05756 7.47682,-4.22526 10.99611,-5.17788 5.38834,-1.45856 6.7712,-1.50324 12.58328,-0.40658 6.12582,1.15586 6.63079,1.12169 8.16479,-0.55253 0.89932,-0.98152 2.60335,-4.9212 3.78675,-8.75484 5.8312,-18.89039 18.03157,-34.26966 35.45936,-44.69855 20.94362,-12.53279 47.48087,-13.39073 70.0565,-2.26489 17.62317,8.68513 30.37895,23.49507 36.56358,42.45166 2.24369,6.87716 3.00987,7.13067 14.39951,4.76445 9.92208,-2.06133 10.81582,-2.04007 18.76459,0.44637 6.82844,2.136 11.15876,5.38214 15.02602,11.26399 1.89138,2.87665 3.88464,5.56588 4.42947,5.97605 0.54484,0.41018 4.42768,0.49399 8.62854,0.18625 4.84078,-0.35463 8.99094,-0.15417 11.33247,0.54737 4.08301,1.2233 10.30469,5.8918 10.30469,7.73222 0,0.90852 -6.19474,1.31629 -27.18401,1.78936 -25.3044,0.57033 -165.08211,0.51923 -219.33086,-0.0802 z"
         id="path17" transform="matrix(10,0,0,-10,0,27510)" />
      <path
         style="fill:#292929;stroke:#292929;stroke-width:13.9405;stroke-linejoin:round;paint-order:markers fill stroke"
         d="m 275.69804,90.689491 -5.43579,-0.540792 2.0968,-2.655797 c 1.15324,-1.460687 3.76665,-3.865427 5.80757,-5.343866 3.45698,-2.504224 4.29986,-2.688069 12.32401,-2.688069 h 8.61323 l 2.41344,-7.246904 c 4.93666,-14.823445 14.05146,-26.041145 24.26416,-29.862205 10.40391,-3.8926 22.83606,-1.767366 31.96728,5.4647 3.84249,3.043304 10.71829,13.674915 12.41103,19.190396 1.17969,3.843786 3.09203,4.336295 11.81049,3.041715 12.0571,-1.790326 18.31084,1.4619 24.16357,12.566153 2.51712,4.775677 2.97951,6.344426 2.04445,6.93632 -2.59946,1.645477 -117.46227,2.632446 -132.48024,1.138349 z"
         id="path16" transform="matrix(10,0,0,-10,0,27510)" />
      <path
         style="fill:#292929;stroke:#292929;stroke-width:13.9405;stroke-linejoin:round;paint-order:markers fill stroke"
         d="m 507.90976,154.97362 c -5.10595,-0.16858 -9.65085,-0.67382 -10.09978,-1.12275 -0.46874,-0.46873 1.06133,-2.82351 3.59395,-5.53108 9.57584,-10.23735 18.53234,-13.58752 28.85517,-10.79327 8.43218,2.28249 9.57812,1.88112 13.21023,-4.62689 3.90182,-6.9913 11.09189,-14.3817 17.29026,-17.77201 4.38921,-2.40075 5.52263,-2.59933 14.51922,-2.54385 5.3671,0.0331 11.22212,0.47402 13.01115,0.97983 1.78904,0.5058 3.78674,0.73804 4.43935,0.51608 1.49713,-0.50919 4.12098,-5.69855 6.22615,-12.31388 5.17356,-16.257573 20.69693,-35.733413 36.60402,-45.923943 8.55483,-5.480468 22.79073,-10.329734 34.48404,-11.746515 28.56807,-3.461359 57.73198,8.454101 75.73259,30.94196 6.85633,8.565511 14.38706,22.441283 16.77597,30.910658 0.86508,3.06691 2.24141,6.10101 3.05851,6.74244 1.11632,0.87629 4.62906,1.01617 14.1297,0.56264 12.4628,-0.59493 12.72725,-0.56623 18.44954,2.00178 11.49275,5.15764 23.89293,21.88979 24.96228,33.68281 l 0.49883,5.50114 -15.59844,0.61519 c -15.21449,0.60005 -281.69585,0.52872 -300.14274,-0.0803 z"
         id="path15" transform="matrix(10,0,0,-10,0,27510)" />
      <path
         style="fill:#292929;fill-opacity:1;fill-rule:nonzero;stroke:#292929;stroke-width:15;stroke-linecap:butt;stroke-linejoin:round;stroke-dasharray:none;stroke-opacity:1;paint-order:markers fill stroke"
         d="m 1022.6766,202.7188 c 0,-4.66024 13.3256,-19.96974 20.795,-23.89088 2.7723,-1.45539 9.6375,-2.41621 17.2639,-2.41621 h 12.6613 l 2.008,-5.5395 c 13.0783,-36.08041 41.0485,-55.77551 72.1069,-50.7737 19.9487,3.21264 37.2342,15.87179 47.8012,35.00744 l 5.6474,10.22676 11.4544,-0.60317 c 10.2507,-0.53979 12.0739,-0.13069 17.349,3.89279 3.242,2.47278 7.9378,7.98256 10.4351,12.24394 3.7095,6.32979 5.1984,7.55501 8.1342,6.69375 9.4568,-2.77427 14.4189,-2.84471 19.3877,-0.27523 5.2672,2.72373 12.3295,11.04701 12.3295,14.53084 0,1.33714 -36.5438,1.86746 -128.6868,1.86746 -70.7778,0 -128.6868,-0.43393 -128.6868,-0.96429 z"
         id="path39" transform="matrix(10,0,0,-10,0,27510)" />
      <path
         style="fill:#292929;fill-opacity:1;fill-rule:nonzero;stroke:#292929;stroke-width:10;stroke-linecap:round;stroke-linejoin:round;stroke-dasharray:none;stroke-opacity:1;paint-order:markers stroke fill"
         d="m 1173.1541,582.51822 c 3.6637,-3.66377 6.7578,-4.85603 14.3758,-5.5395 l 9.7072,-0.87091 3.0233,-8.47131 c 8.1946,-22.9615 27.2689,-34.81658 45.1635,-28.07006 6.9321,2.61352 15.5473,11.4376 20.3583,20.85208 l 4.1767,8.17316 10.1276,-1.14581 c 8.0188,-0.90722 11.0384,-0.54906 14.5016,1.7201 4.5947,3.0106 11.0118,12.26141 11.0226,15.89026 0.01,1.66925 -14.8397,2.13057 -68.5594,2.13057 h -68.5658 z"
         id="path38" transform="matrix(10,0,0,-10,0,27510)" />
      <!--
      =============================================================================================  
      INITIAL SHAPES
      =============================================================================================
      -->
      <path fill="#C6C6C6"
         d="M9825 27351 c-158 -32 -307 -181 -385 -385 -7 -20 -19 -25 -67 -31 -32 -4 -75 -16 -97 -27 -42 -21 -136 -112 -136 -130 0 -6 -7 -19 -15 -28 -23 -25 -30 -110 -12 -135 15 -20 27 -20 837 -20 l821 0 19 25 c23 30 25 68 6 131 -29 97 -74 163 -139 207 -56 38 -77 44 -171 51 l-78 6 -37 70 c-49 96 -146 192 -235 234 -60 28 -81 33 -170 36 -55 2 -119 0 -141 -4z m240 -109 c65 -22 121 -63 168 -122 37 -46 53 -75 92 -168 23 -55 39 -63 96 -50 75 17 150 3 198 -38 44 -38 97 -135 87 -159 -5 -13 -106 -15 -744 -15 -406 0 -742 3 -745 6 -16 16 35 75 104 121 36 24 46 25 109 20 64 -5 71 -4 85 16 8 12 15 34 15 50 0 16 6 41 14 55 8 15 24 47 35 72 38 83 134 171 226 209 66 26 191 28 260 3z"
         id="path1" />
      <path fill="#C6C6C6"
         d="M9825 27351 c-158 -32 -307 -181 -385 -385 -7 -20 -19 -25 -67 -31 -32 -4 -75 -16 -97 -27 -42 -21 -136 -112 -136 -130 0 -6 -7 -19 -15 -28 -23 -25 -30 -110 -12 -135 15 -20 27 -20 837 -20 l821 0 19 25 c23 30 25 68 6 131 -29 97 -74 163 -139 207 -56 38 -77 44 -171 51 l-78 6 -37 70 c-49 96 -146 192 -235 234 -60 28 -81 33 -170 36 -55 2 -119 0 -141 -4z m240 -109 c65 -22 121 -63 168 -122 37 -46 53 -75 92 -168 23 -55 39 -63 96 -50 75 17 150 3 198 -38 44 -38 97 -135 87 -159 -5 -13 -106 -15 -744 -15 -406 0 -742 3 -745 6 -16 16 35 75 104 121 36 24 46 25 109 20 64 -5 71 -4 85 16 8 12 15 34 15 50 0 16 6 41 14 55 8 15 24 47 35 72 38 83 134 171 226 209 66 26 191 28 260 3z"
         id="path2" />
      <path fill="#C6C6C6"
         d="M3280 27201 c-146 -24 -293 -166 -353 -343 -5 -13 -17 -18 -41 -18 -112 0 -226 -82 -286 -206 -36 -73 -37 -78 -5 -109 l24 -25 750 0 c743 0 793 2 813 33 14 22 8 92 -12 151 -39 109 -102 184 -188 224 -45 20 -65 24 -129 21 l-75 -4 -24 45 c-51 95 -138 175 -231 213 -49 19 -177 29 -243 18z m239 -124 c37 -19 77 -49 97 -72 32 -40 94 -154 94 -174 0 -25 39 -31 105 -17 113 24 197 -16 245 -115 12 -24 26 -52 32 -63 7 -13 6 -22 -2 -30 -14 -14 -1357 -21 -1380 -6 -13 8 -12 13 6 37 12 15 40 41 63 58 39 27 47 29 125 27 l83 -1 18 57 c47 149 126 256 222 303 92 45 197 43 292 -4z"
         id="path3" />
      <path fill="#C6C6C6"
         d="M6660 27171 c-68 -9 -164 -33 -196 -49 -11 -5 -50 -24 -89 -43 -132 -63 -278 -190 -362 -314 -48 -71 -113 -200 -113 -224 0 -28 -42 -60 -65 -51 -29 12 -118 12 -172 -1 -126 -29 -269 -136 -303 -224 -8 -22 -13 -23 -117 -23 -118 1 -147 -9 -243 -78 -95 -68 -175 -221 -142 -270 22 -34 33 -34 1750 -34 l1699 0 23 25 c16 17 24 37 23 60 -1 35 -29 156 -42 184 -5 9 -17 34 -27 56 -51 109 -146 211 -246 266 -62 33 -66 33 -185 34 l-122 0 -17 40 c-33 81 -78 167 -122 233 -83 124 -252 270 -382 330 -90 41 -118 52 -132 52 -7 0 -32 7 -56 15 -50 18 -268 27 -362 16z m331 -111 c217 -57 374 -161 499 -330 68 -92 132 -224 147 -302 8 -42 36 -62 75 -53 18 3 74 9 123 11 94 6 119 -1 210 -55 31 -18 134 -138 135 -156 0 -6 5 -16 12 -23 30 -30 64 -168 47 -189 -10 -11 -283 -13 -1624 -13 -888 0 -1620 3 -1629 6 -9 3 -16 14 -16 24 0 25 108 124 164 149 59 25 144 28 192 5 52 -25 77 -13 103 50 26 63 113 152 181 185 37 18 63 22 144 22 54 0 114 -6 132 -13 31 -11 36 -10 52 7 10 11 26 47 36 80 49 165 171 338 318 451 31 24 60 44 64 44 4 0 15 6 23 14 24 21 148 67 231 87 108 25 285 25 381 -1z"
         id="path4" />
      <path fill="#C6C6C6"
         d="M11190 26399 c-158 -46 -304 -149 -407 -289 -35 -47 -97 -167 -116 -221 -4 -13 -23 -18 -79 -22 -146 -11 -218 -38 -310 -117 -82 -70 -178 -237 -178 -308 0 -15 7 -38 16 -50 l15 -22 1375 0 c929 0 1382 3 1395 10 15 9 19 22 19 70 0 77 -37 149 -116 226 -70 68 -110 84 -218 84 l-94 0 -42 57 c-92 121 -149 153 -275 157 -50 1 -96 5 -102 9 -6 4 -29 37 -51 74 -77 129 -179 223 -322 296 -30 15 -71 32 -90 37 -19 5 -53 14 -75 19 -68 18 -271 12 -345 -10z m336 -88 c129 -29 237 -93 337 -200 54 -58 86 -108 117 -184 29 -70 47 -83 87 -62 16 9 55 15 94 15 53 0 76 -5 113 -26 57 -32 121 -104 148 -166 17 -40 25 -48 47 -48 14 0 39 7 55 15 39 21 109 19 155 -4 66 -34 154 -152 136 -181 -4 -6 -488 -10 -1301 -10 l-1294 0 0 28 c0 40 87 161 147 204 89 65 114 72 243 70 l117 -2 16 36 c9 19 17 42 17 50 0 9 16 48 36 87 150 299 432 446 730 378z"
         id="path5" />
      <path fill="#C6C6C6"
         d="M2115 25985 c-22 -8 -48 -15 -57 -15 -10 0 -47 -13 -81 -30 -35 -16 -67 -30 -70 -30 -15 0 -157 -104 -205 -150 -99 -95 -212 -269 -212 -328 0 -10 -7 -28 -16 -40 -13 -19 -24 -22 -78 -22 -127 0 -243 -59 -332 -170 -77 -94 -104 -188 -66 -223 17 -16 134 -17 1471 -17 1319 0 1454 1 1476 16 16 10 25 26 25 41 0 42 -60 152 -99 181 -20 15 -38 30 -41 34 -17 22 -117 48 -188 48 -77 0 -77 0 -101 35 -28 42 -97 94 -166 126 -44 20 -64 23 -171 21 l-121 -1 -33 72 c-47 102 -83 151 -175 241 -63 61 -167 136 -189 136 -8 0 -19 7 -26 15 -7 8 -22 15 -34 15 -12 0 -26 4 -32 9 -5 5 -46 18 -91 30 -102 26 -323 29 -388 6z m312 -96 c13 -5 35 -9 48 -9 14 0 39 -6 57 -14 18 -8 53 -22 78 -32 112 -45 247 -162 313 -274 21 -34 37 -66 37 -71 0 -5 6 -20 14 -32 8 -12 17 -38 20 -58 4 -20 15 -44 26 -54 18 -17 23 -16 102 4 101 25 114 26 186 5 96 -28 136 -60 183 -143 28 -50 38 -53 136 -36 27 5 60 3 87 -5 53 -15 116 -64 116 -91 0 -19 -24 -19 -1359 -19 -1102 0 -1360 2 -1364 13 -8 20 44 88 98 129 78 59 181 82 254 57 45 -16 79 -5 87 29 49 211 160 371 341 492 85 57 157 86 273 111 87 18 216 18 267 -2z"
         id="path6" />
      <path fill="#C6C6C6"
         d="M7547 25321 c-26 -10 -53 -23 -59 -29 -7 -7 -16 -12 -21 -12 -11 0 -127 -89 -127 -98 0 -4 -10 -18 -23 -32 -42 -47 -96 -140 -97 -168 0 -7 -7 -24 -16 -37 -13 -20 -25 -25 -56 -25 -44 0 -130 -37 -168 -72 -30 -28 -79 -91 -102 -135 -25 -45 -23 -95 5 -121 l23 -22 810 0 810 0 23 21 c20 19 23 29 19 83 -8 114 -86 234 -188 291 -25 13 -57 20 -113 21 -59 1 -83 6 -98 20 -10 9 -19 21 -19 27 0 17 -68 121 -102 157 -64 67 -116 101 -206 134 -59 22 -230 20 -295 -3z m249 -90 c80 -21 145 -61 196 -121 36 -41 98 -158 98 -184 0 -7 8 -24 18 -36 17 -21 22 -22 52 -12 18 7 60 12 94 12 53 0 67 -4 112 -35 37 -26 60 -52 82 -95 18 -33 29 -66 26 -75 -6 -13 -89 -15 -747 -13 -835 3 -786 -2 -703 78 60 58 96 72 180 68 l69 -3 21 70 c12 39 27 80 34 92 6 12 12 27 12 33 0 12 47 77 85 116 54 57 152 105 240 117 54 7 59 7 131 -12z"
         id="path7" />
      <path fill="#C00F26"
         d="M10187 24904 c-3 -3 -54 -10 -114 -15 -59 -5 -151 -18 -203 -29 -52 -12 -114 -25 -137 -30 -23 -5 -50 -14 -60 -19 -10 -5 -46 -19 -81 -31 -34 -11 -70 -24 -80 -29 -9 -6 -53 -26 -97 -47 -84 -38 -305 -179 -305 -194 0 -5 -8 -11 -17 -14 -46 -15 -228 -211 -301 -325 -51 -78 -53 -81 -94 -163 -107 -214 -158 -428 -158 -658 1 -145 47 -413 85 -497 8 -17 15 -36 15 -42 0 -6 4 -19 9 -29 5 -9 29 -60 55 -113 56 -115 141 -247 250 -389 79 -103 104 -134 197 -235 26 -27 62 -67 80 -89 58 -67 239 -255 383 -401 l140 -140 -2 -63 c-3 -70 20 -138 49 -147 9 -3 23 -13 31 -23 14 -15 14 -39 1 -207 -13 -180 -15 -191 -39 -216 l-26 -27 4 -163 c4 -179 13 -210 66 -246 25 -17 54 -18 427 -18 374 0 402 1 428 19 15 10 30 30 33 45 3 14 9 42 14 61 5 20 13 93 16 163 l7 128 -30 32 c-29 31 -31 36 -37 152 -4 66 -11 151 -17 190 l-10 70 47 41 47 40 1 83 1 82 55 57 c30 31 104 109 165 172 274 286 319 336 464 505 70 82 229 303 278 385 57 97 143 272 143 292 0 8 4 18 10 24 5 5 14 30 19 54 5 25 14 63 20 85 32 133 36 170 36 360 0 117 -5 223 -12 255 -42 193 -52 233 -64 245 -5 5 -9 15 -9 23 0 37 -120 272 -168 327 -4 6 -13 18 -18 26 -53 93 -248 278 -384 365 -105 67 -339 184 -368 184 -5 0 -23 7 -38 15 -16 8 -36 15 -45 15 -9 0 -30 7 -45 15 -16 8 -40 15 -55 15 -14 0 -29 4 -35 9 -10 10 -91 25 -219 41 -44 6 -110 15 -148 20 -76 11 -151 13 -160 4z m143 -132 c32 -32 100 -134 100 -147 0 -3 13 -33 29 -67 56 -124 112 -328 126 -458 3 -30 10 -73 15 -95 15 -61 29 -451 19 -490 -15 -53 -85 -101 -202 -139 -67 -22 -281 -22 -339 0 -81 31 -125 54 -159 85 l-34 30 3 192 c3 260 55 609 108 734 8 17 14 36 14 42 0 28 88 207 132 267 75 105 122 117 188 46z m-308 -65 c-22 -41 -42 -83 -45 -94 -3 -10 -17 -45 -31 -78 -14 -33 -26 -67 -26 -76 0 -9 -3 -19 -7 -23 -9 -9 -24 -68 -53 -201 -33 -150 -53 -330 -59 -530 -6 -205 -10 -218 -64 -258 -95 -71 -242 -96 -370 -63 -68 18 -93 32 -135 75 l-32 34 6 91 c3 50 10 104 15 120 5 16 9 49 9 73 0 24 7 60 15 80 8 19 15 46 15 58 0 13 7 36 15 51 8 16 15 39 15 51 0 12 4 24 9 28 5 3 12 19 16 35 9 42 85 187 142 273 99 148 283 316 418 382 73 36 167 65 178 55 4 -4 -10 -41 -31 -83z m513 70 c123 -42 237 -119 366 -247 222 -221 328 -449 375 -805 30 -230 30 -221 1 -259 -41 -54 -154 -97 -249 -95 -125 2 -269 65 -305 135 -6 10 -14 102 -17 204 -11 308 -47 547 -107 725 -6 17 -13 39 -16 50 -11 46 -92 233 -115 266 -16 23 -2 53 20 44 9 -4 31 -12 47 -18z m-885 -74 c0 -5 -49 -57 -108 -118 -106 -108 -207 -248 -261 -360 -44 -92 -47 -100 -66 -160 -10 -33 -24 -77 -31 -98 -8 -20 -14 -50 -14 -65 0 -15 -4 -32 -9 -37 -10 -10 -27 -149 -37 -305 -7 -94 -19 -121 -67 -147 -100 -54 -193 -66 -283 -37 -96 30 -143 68 -144 114 0 34 36 214 54 270 23 69 45 128 55 148 5 9 12 24 15 32 3 8 20 39 36 68 155 273 399 498 690 638 52 25 102 49 110 54 19 11 60 13 60 3z m1244 -2 c3 -5 18 -12 33 -15 60 -16 338 -168 388 -213 11 -10 51 -42 88 -72 58 -46 111 -101 206 -216 9 -11 27 -38 41 -60 13 -22 27 -42 32 -45 7 -6 98 -184 98 -194 0 -2 5 -17 12 -33 34 -82 67 -227 75 -329 5 -68 4 -72 -24 -100 -85 -84 -318 -84 -419 1 -40 34 -40 31 -63 300 -16 173 -76 401 -132 495 -5 8 -13 24 -18 36 -17 38 -93 158 -136 214 -45 58 -181 196 -209 212 -9 5 -14 13 -11 19 8 12 32 12 39 0z m-1096 -1457 l3 -120 -37 -37 c-21 -21 -63 -49 -93 -64 -50 -24 -68 -27 -161 -27 -99 -1 -109 1 -171 33 -37 18 -76 45 -86 60 -21 28 -36 103 -37 191 l-1 55 30 -3 c16 -2 34 -7 40 -12 20 -17 135 -40 198 -40 66 0 184 24 202 41 5 5 15 9 23 9 8 0 25 9 40 20 14 11 30 19 36 17 7 -2 12 -49 14 -123z m995 96 c61 -34 160 -60 234 -60 48 0 165 24 188 39 6 3 25 11 43 17 43 16 49 1 34 -75 -6 -31 -14 -79 -18 -107 -8 -63 -35 -95 -112 -132 -48 -23 -70 -27 -142 -27 -85 1 -164 21 -201 52 -8 7 -20 13 -25 13 -13 0 -58 48 -73 77 -15 30 -15 205 1 221 15 15 10 17 71 -18z m-845 -3 c20 -13 70 -34 111 -47 66 -20 87 -22 210 -17 141 5 179 14 278 63 78 39 87 31 79 -63 -3 -42 -6 -88 -6 -104 0 -52 -71 -114 -175 -155 -41 -15 -75 -19 -185 -19 -150 0 -192 11 -285 71 -74 48 -85 73 -85 193 0 62 4 101 10 101 6 0 27 -11 48 -23z m-1214 -41 c46 -18 89 -26 130 -26 61 0 191 31 210 50 18 18 45 11 51 -12 10 -42 22 -203 16 -220 -7 -18 -90 -88 -106 -88 -5 0 -23 -7 -40 -16 -19 -10 -57 -15 -115 -15 -93 -1 -157 20 -197 63 -28 30 -53 139 -53 230 0 80 -10 77 104 34z m2692 25 c5 -5 39 -19 77 -31 57 -19 80 -22 155 -17 83 6 162 26 190 50 25 20 33 -14 27 -110 -5 -88 -23 -162 -46 -190 -28 -33 -100 -53 -195 -53 -51 0 -95 4 -98 9 -3 5 -18 12 -33 16 -15 3 -53 23 -85 42 l-58 36 0 58 c0 32 4 78 10 101 5 24 12 55 15 71 5 27 23 35 41 18z m-653 -346 c28 -19 57 -35 63 -35 7 0 25 -7 40 -15 21 -11 61 -15 139 -15 78 0 118 4 139 15 36 19 55 19 62 0 6 -15 -27 -136 -52 -192 -8 -17 -14 -38 -14 -46 0 -9 -4 -18 -9 -22 -5 -3 -13 -20 -17 -37 -3 -18 -10 -39 -15 -48 -4 -8 -15 -31 -23 -50 -26 -63 -57 -135 -66 -155 -5 -11 -45 -96 -89 -188 -45 -92 -81 -172 -81 -178 0 -13 -37 -11 -49 4 -6 6 -26 32 -44 57 -18 25 -43 50 -56 56 -39 20 -44 31 -42 96 1 48 7 71 26 98 34 49 45 85 39 120 -5 24 -1 35 24 60 64 63 49 143 -40 224 -38 35 -48 49 -44 68 3 12 10 57 16 98 20 141 16 137 93 85z m-938 -57 c3 -46 10 -96 15 -113 13 -44 20 -204 9 -211 -5 -3 -19 2 -31 10 -31 22 -70 20 -128 -5 -41 -18 -55 -19 -81 -10 -18 6 -49 11 -69 11 -24 0 -43 7 -55 20 -10 11 -28 20 -39 20 -12 0 -39 8 -60 18 -33 15 -41 25 -51 62 -7 25 -20 70 -30 100 -9 30 -19 72 -22 94 l-5 38 32 -7 c17 -4 43 -13 58 -21 18 -9 63 -14 139 -14 121 0 191 18 249 65 52 43 61 35 69 -57z m772 28 c-11 -73 -27 -140 -36 -149 -6 -6 -25 -3 -51 7 -28 11 -72 16 -146 16 -122 0 -176 -18 -219 -73 -28 -38 -31 -70 -10 -107 19 -33 19 -65 -1 -85 -14 -14 -30 -15 -93 -10 -42 4 -81 12 -87 19 -11 10 -44 300 -44 378 0 47 9 52 49 27 77 -47 148 -62 291 -62 147 0 218 16 298 67 20 13 41 21 46 19 4 -3 6 -24 3 -47z m898 -50 c11 -5 63 -12 115 -14 73 -3 105 0 135 12 76 32 72 9 -35 -204 -140 -280 -379 -573 -911 -1112 -98 -100 -129 -121 -143 -100 -3 5 2 22 10 38 222 419 474 929 474 957 0 7 7 22 15 33 8 10 15 27 15 36 0 9 6 29 14 45 28 55 46 101 46 120 0 10 5 24 11 30 6 6 14 26 19 44 23 89 50 172 60 184 11 13 21 9 175 -69z m-2310 47 c6 -29 37 -134 61 -211 8 -24 11 -48 8 -54 -7 -10 -96 -6 -124 6 -9 4 -25 -2 -38 -14 -21 -20 -22 -29 -22 -170 0 -139 2 -152 21 -171 11 -11 27 -18 36 -15 8 4 45 11 82 16 149 22 206 27 213 21 3 -3 56 -103 115 -221 60 -118 125 -242 143 -275 57 -102 201 -339 216 -356 17 -18 9 -49 -12 -49 -51 0 -152 92 -509 461 -296 307 -490 558 -598 774 -101 204 -109 247 -38 210 42 -21 210 -21 259 1 83 36 122 56 127 65 4 5 17 9 30 9 19 0 26 -7 30 -27z m1360 -230 c27 -9 52 -19 55 -22 3 -4 24 -19 48 -34 33 -21 42 -34 40 -50 -3 -20 -10 -22 -66 -25 -57 -3 -68 0 -100 25 -52 40 -90 50 -208 58 -89 6 -104 10 -104 25 0 19 31 37 75 44 54 8 208 -5 260 -21z m-1308 -118 c31 -8 81 -15 110 -15 51 0 52 -1 58 -33 4 -18 5 -51 3 -72 -3 -45 0 -43 -157 -65 -68 -9 -85 -9 -92 2 -12 19 -11 156 1 179 13 23 6 22 77 4z m1168 -15 c35 0 44 -4 53 -25 7 -14 12 -43 12 -65 0 -60 20 -73 97 -65 59 6 63 5 63 -14 0 -12 -13 -40 -30 -63 -27 -37 -30 -49 -30 -115 l0 -74 -33 -14 c-18 -7 -57 -15 -87 -16 -51 -3 -56 -1 -68 23 -17 35 -59 68 -88 68 -31 0 -57 36 -93 131 -36 95 -37 99 -13 130 11 13 22 37 26 54 13 52 24 58 90 51 32 -3 78 -6 101 -6z m-621 -82 c16 -37 19 -39 54 -36 l37 3 7 -68 c5 -38 12 -76 18 -86 15 -28 -9 -50 -62 -57 -44 -6 -47 -5 -62 24 -9 17 -16 40 -16 50 0 11 -7 36 -15 55 -15 35 -21 148 -9 160 13 12 33 -6 48 -45z m-180 22 c25 0 35 -6 44 -25 10 -21 9 -26 -9 -35 -10 -6 -47 -10 -82 -8 -61 3 -62 3 -62 33 0 23 6 31 25 36 14 4 31 5 38 3 8 -2 28 -4 46 -4z m1039 -15 c-2 -5 -25 -11 -53 -13 -40 -2 -50 0 -50 13 0 13 10 15 53 13 28 -2 51 -7 50 -13z m-584 -47 c37 -14 12 -30 -50 -32 -45 -1 -54 2 -57 18 -7 36 35 41 107 14z m-404 -86 c6 -4 19 -34 29 -67 11 -33 25 -73 31 -90 137 -336 175 -404 246 -441 21 -10 30 -26 39 -66 6 -29 16 -66 21 -83 4 -16 16 -56 25 -88 12 -40 14 -61 7 -68 -21 -21 -53 13 -133 144 -126 204 -177 293 -245 422 -26 50 -51 97 -56 105 -17 28 -99 210 -99 219 0 9 21 12 105 19 11 1 25 -2 30 -6z m451 -10 c6 -4 21 -35 33 -70 33 -98 58 -132 97 -132 11 0 31 -11 44 -25 27 -29 27 -29 -87 -45 -99 -13 -113 -7 -148 67 -14 28 -30 55 -35 58 -6 3 -10 15 -10 25 0 10 -8 32 -17 49 -13 22 -15 33 -7 41 8 8 68 29 114 39 3 0 10 -3 16 -7z m-164 -189 c8 -10 27 -42 41 -70 45 -91 56 -98 146 -96 42 1 99 7 126 13 58 14 222 38 313 47 60 5 65 4 93 -23 34 -33 99 -134 99 -155 0 -21 -197 -411 -212 -421 -18 -11 -221 -10 -251 1 l-25 10 2 142 c2 173 -1 168 146 179 55 3 105 11 111 17 6 6 9 23 7 39 -3 27 -6 29 -48 28 -25 0 -92 -6 -150 -12 -58 -6 -160 -13 -227 -14 -115 -3 -123 -2 -146 20 -26 25 -140 247 -142 277 0 8 63 32 91 34 6 1 18 -7 26 -16z m229 -403 c17 -10 19 -23 19 -154 0 -124 -2 -145 -16 -150 -24 -9 -43 11 -49 53 -3 20 -12 59 -20 86 -13 47 -29 128 -30 150 0 6 16 13 35 16 19 4 36 7 38 8 2 0 12 -4 23 -9z m496 -412 c30 -28 29 -49 -3 -79 l-26 -24 -386 0 -387 0 -22 23 c-13 12 -23 33 -23 46 0 53 11 55 434 55 387 1 390 1 413 -21z m-293 -219 c3 -17 6 -105 6 -194 0 -126 -3 -165 -14 -174 -9 -8 -82 -11 -242 -9 l-229 3 1 80 c1 60 19 304 23 323 1 1 102 2 225 2 l224 0 6 -31z m215 -16 c6 -27 12 -118 13 -203 l3 -155 -64 -3 c-35 -2 -68 1 -74 7 -7 7 -14 337 -8 394 1 4 28 7 60 7 l59 0 11 -47z m69 -543 c2 -78 -1 -116 -13 -147 l-17 -43 -371 0 c-331 0 -372 2 -389 17 -16 14 -18 33 -18 150 l0 133 403 -2 402 -3 3 -105z"
         id="path8" />
      <path fill="#C00F26" d="M10267 22513 c-13 -12 -7 -41 10 -47 21 -8 48 17 40 38 -6 16 -38 22 -50 9z" id="path9" />
      <path fill="#C00F26"
         d="M10134 20555 c-4 -8 -3 -26 0 -40 6 -25 8 -25 105 -25 101 0 131 10 131 44 0 29 -25 36 -127 36 -83 0 -105 -3 -109 -15z"
         id="path10" />
      <path fill="#C6C6C6"
         d="M4400 24531 c-53 -7 -89 -16 -175 -48 -246 -91 -442 -278 -569 -544 -20 -42 -36 -85 -36 -95 -1 -10 -7 -30 -15 -44 -8 -14 -14 -35 -15 -48 0 -30 -23 -37 -57 -18 -54 29 -155 47 -209 36 -106 -21 -175 -47 -189 -71 -15 -24 -52 -8 -79 36 -67 106 -196 195 -281 195 -53 0 -85 14 -85 36 0 30 -52 141 -99 209 -77 114 -213 218 -357 272 -62 23 -84 26 -224 27 -160 1 -186 -4 -305 -55 -53 -23 -139 -82 -194 -134 -94 -89 -151 -174 -215 -327 -14 -34 -20 -38 -51 -38 -45 0 -120 -18 -165 -39 -43 -20 -141 -115 -161 -156 l-14 -30 -138 -2 -138 -1 -75 -38 c-53 -27 -90 -54 -125 -93 -27 -30 -49 -60 -49 -67 0 -6 -6 -17 -14 -23 -23 -20 -31 -107 -12 -136 l16 -25 2839 0 c2737 0 2838 1 2854 18 26 28 20 85 -15 159 -42 91 -61 117 -140 195 -87 86 -153 117 -278 133 -97 11 -120 18 -120 37 0 5 -6 24 -14 41 -7 18 -21 52 -32 77 -10 25 -30 64 -46 88 -15 24 -28 46 -28 50 -1 12 -134 157 -196 213 -65 58 -204 134 -299 163 -33 11 -78 25 -99 33 -45 16 -309 26 -396 14z m343 -106 c32 -8 66 -15 75 -15 9 0 30 -7 46 -15 15 -8 32 -15 36 -15 11 0 91 -38 125 -60 17 -11 39 -24 50 -29 21 -9 166 -148 202 -193 28 -34 65 -99 98 -168 14 -30 30 -63 35 -72 6 -10 10 -26 10 -35 0 -10 9 -37 20 -60 l19 -43 98 0 c127 0 196 -26 288 -107 55 -49 120 -156 114 -188 -4 -20 -32 -20 -2752 -23 l-2747 -2 0 21 c0 27 62 102 106 128 84 50 251 68 315 35 52 -26 71 -16 105 56 61 126 132 175 243 167 36 -3 78 -8 93 -12 31 -8 32 -6 63 100 43 148 131 273 256 366 124 92 206 119 365 119 181 0 300 -48 425 -170 42 -41 79 -82 83 -90 9 -21 30 -55 42 -71 6 -8 14 -23 17 -34 3 -11 18 -56 34 -100 l30 -80 65 3 c57 3 74 0 128 -27 85 -42 190 -157 190 -208 0 -18 28 -53 42 -53 5 0 35 17 66 37 79 51 118 69 182 81 89 17 194 -13 249 -72 26 -28 79 -36 85 -13 2 6 11 41 20 77 39 150 50 181 96 270 96 188 266 360 423 429 77 34 121 49 187 64 88 21 298 22 373 2z"
         id="path11" />
      <path fill="#C6C6C6"
         d="M2331 22645 c-92 -23 -171 -72 -249 -154 -46 -49 -71 -92 -130 -217 -13 -27 -22 -32 -81 -44 -99 -18 -173 -72 -230 -166 -23 -38 -31 -63 -31 -97 0 -83 -71 -77 849 -77 l818 0 21 23 c13 13 22 36 22 53 0 33 -31 127 -60 185 -43 84 -177 163 -271 159 -75 -3 -76 -2 -104 56 -29 61 -49 88 -115 154 -83 82 -119 102 -230 126 -78 17 -136 16 -209 -1z m285 -127 c99 -48 178 -151 223 -290 14 -43 29 -46 105 -26 35 9 56 9 101 -2 49 -12 64 -21 103 -66 42 -48 78 -127 66 -146 -8 -13 -1481 -10 -1489 3 -10 15 31 69 80 107 41 31 47 33 123 31 90 -2 102 2 102 36 0 63 75 209 140 275 84 84 148 109 278 109 95 1 107 -1 168 -31z"
         id="path12" />
      <path fill="#C6C6C6"
         d="M5495 22289 c-27 -6 -71 -16 -96 -24 -26 -8 -52 -15 -58 -15 -35 0 -196 -92 -267 -153 -48 -41 -148 -148 -184 -196 l-18 -25 -85 22 c-87 22 -121 21 -227 -7 -59 -15 -126 -56 -191 -118 l-45 -44 -65 21 c-105 32 -183 25 -305 -31 -56 -26 -125 -88 -167 -152 -20 -30 -42 -58 -49 -64 -7 -5 -45 -10 -83 -10 -142 -2 -264 -66 -353 -187 -55 -75 -71 -110 -78 -170 -6 -46 -4 -56 15 -75 l21 -21 2916 2 2915 3 19 25 c22 29 25 59 9 109 -41 127 -112 219 -199 257 -8 3 -30 13 -49 21 -25 11 -57 14 -119 11 l-84 -5 -36 56 c-63 100 -155 175 -237 194 -106 25 -234 16 -292 -19 -38 -23 -58 -16 -92 31 -173 240 -600 329 -891 186 -81 -40 -96 -49 -141 -83 -20 -16 -39 -28 -43 -28 -4 0 -31 20 -59 44 -52 46 -121 86 -192 113 -64 23 -214 29 -269 10 l-47 -16 -65 69 c-124 131 -308 234 -469 261 -84 15 -280 19 -340 8z m385 -119 c167 -56 348 -185 430 -308 14 -21 49 -29 64 -15 14 14 122 43 162 43 100 0 235 -69 315 -160 62 -71 82 -75 136 -25 48 45 157 117 203 134 114 42 280 56 385 33 184 -42 308 -123 398 -260 36 -57 43 -63 66 -57 14 4 33 12 41 19 43 35 105 51 200 51 93 0 96 -1 152 -38 66 -44 95 -80 144 -177 41 -79 44 -81 130 -49 55 21 59 21 117 5 72 -20 124 -59 166 -124 34 -53 40 -96 15 -106 -29 -11 -5644 -7 -5665 4 -19 11 -19 11 0 48 49 94 157 181 251 201 45 10 68 10 125 -3 38 -8 73 -12 77 -10 5 3 22 32 38 66 60 120 142 192 245 217 81 19 127 13 221 -30 54 -25 70 -24 91 9 33 51 78 93 138 130 58 35 63 36 160 36 90 0 105 -3 154 -29 57 -29 74 -27 95 10 33 59 133 179 188 226 73 63 79 66 176 114 125 60 203 75 382 70 106 -2 149 -8 200 -25z"
         id="path13" />
      <path fill="#C6C6C6"
         d="m 12242,22225 c -84,-21 -121,-43 -198,-119 -68,-68 -85,-93 -132,-198 l -22,-48 h -50 c -34,0 -67,-8 -100,-25 -49,-25 -140,-108 -140,-128 0,-6 -6,-18 -13,-26 -7,-9 -19,-33 -25,-53 -11,-31 -11,-42 3,-68 l 16,-30 h 774 c 690,0 775,2 789,16 24,24 21,133 -5,192 -31,69 -94,148 -142,180 -37,24 -54,28 -147,32 -93,4 -105,7 -110,25 -8,32 -66,117 -102,151 -101,94 -257,133 -396,99 z m 270,-128 c 70,-45 124,-109 158,-188 33,-78 46,-87 102,-70 102,31 148,22 216,-43 41,-37 84,-119 80,-149 l -3,-22 h -689 c -562,0 -690,2 -694,13 -2,7 16,33 40,56 56,53 119,73 178,55 35,-11 43,-10 60,6 11,10 23,34 26,54 22,116 125,258 219,301 61,27 73,29 166,26 78,-3 90,-6 141,-39 z"
         id="path14" style="display:inline;mix-blend-mode:normal" />
      <path
         style="fill:#292929;stroke:#292929;stroke-width:13.9405;stroke-linejoin:round;paint-order:markers fill stroke"
         d="" id="path47" transform="matrix(10,0,0,-10,0,27510)" />
   </g>
</svg>